<?xml version="1.0" encoding="utf-8"?>
<!-- Generator: Adobe Illustrator 28.3.0, SVG Export Plug-In . SVG Version: 6.00 Build 0)  -->
<svg version="1.1" id="Layer_1" xmlns="http://www.w3.org/2000/svg" xmlns:xlink="http://www.w3.org/1999/xlink" x="0px" y="0px"
	 viewBox="0 0 717 1034" style="enable-background:new 0 0 717 1034;" xml:space="preserve">
<style type="text/css">
	.st0{fill:none;stroke:#FF0000;stroke-width:1.000000e-03;stroke-linecap:round;stroke-miterlimit:288;}
	.st1{fill:none;stroke:#FF0000;stroke-width:7.200000e-02;stroke-linecap:round;stroke-miterlimit:288;}
	.st2{font-family:'NiagaraEngraved-Reg';}
	.st3{font-size:39.4899px;}
	.st4{font-size:36px;}
	.st5{fill:none;stroke:#000000;stroke-width:1.000000e-03;stroke-miterlimit:10;}
</style>
<path id="front_outsideCutPath" vector-effect="non-scaling-stroke" class="st0" d="M0,521.5v36.4h8.5v48.8H0v48.9h8.5v48.8H0v48.9
	h8.5v48.8H0V851h8.5v48.8H0v48.9h8.5v48.8H0v36.4h43.2v-8.5h48.9v8.5h48.8v-8.5h48.9v8.5H233v-36.4h-8.5v-48.8h8.5v-48.9h-8.5V851
	h8.5v-48.9h-8.5v-48.8h8.5v-48.9h-8.5v-48.8h8.5v-48.9h-8.5v-48.8h8.5v-36.4H0z"/>
<path id="left_outsideCutPath" vector-effect="non-scaling-stroke" class="st0" d="M250.5,521.5v36.4H242v48.8h8.5v48.9H242v48.8
	h8.5v48.9H242v48.8h8.5V851H242v48.8h8.5v48.9H242v48.8h8.5v36.4h34.7v-8.5h48.9v8.5h48.8v-8.5h48.9v8.5h34.7v-36.4h8.5v-48.8h-8.5
	v-48.9h8.5V851h-8.5v-48.9h8.5v-48.8h-8.5v-48.9h8.5v-48.8h-8.5v-48.9h8.5v-48.8h-8.5v-36.4H250.5z"/>
<path id="back_outsideCutPath" vector-effect="non-scaling-stroke" class="st0" d="M0,0v36.4h8.5v48.8H0v48.9h8.5V183H0v48.9h8.5
	v48.8H0v48.9h8.5v48.8H0v48.9h8.5v48.8H0v36.4h43.2V504h48.9v8.5h48.8V504h48.9v8.5H233v-36.4h-8.5v-48.8h8.5v-48.9h-8.5v-48.8h8.5
	v-48.9h-8.5v-48.8h8.5V183h-8.5v-48.8h8.5V85.2h-8.5V36.4h8.5V0H0z"/>
<path id="right_outsideCutPath" vector-effect="non-scaling-stroke" class="st0" d="M250.5,0v36.4H242v48.8h8.5v48.9H242V183h8.5
	v48.9H242v48.8h8.5v48.9H242v48.8h8.5v48.9H242v48.8h8.5v36.4h34.7V504h48.9v8.5h48.8V504h48.9v8.5h34.7v-36.4h8.5v-48.8h-8.5v-48.9
	h8.5v-48.8h-8.5v-48.9h8.5v-48.8h-8.5V183h8.5v-48.8h-8.5V85.2h8.5V36.4h-8.5V0H250.5z"/>
<path id="bottom_outsideCutPath" vector-effect="non-scaling-stroke" class="st0" d="M492.5,809.5v34.7H484v48.9h8.5v48.8H484v48.9
	h8.5v34.7h34.7v8.5h48.9v-8.5h48.8v8.5h48.9v-8.5h34.7v-34.7h8.5v-48.9h-8.5v-48.8h8.5v-48.9h-8.5v-34.7h-34.7V801h-48.9v8.5h-48.8
	V801h-48.9v8.5H492.5z"/>
<rect x="142" y="34.5" class="st1" width="56" height="69"/>
<text transform="matrix(-5.362498e-04 0.759 -1 -7.066033e-04 170.0006 130.2622)" class="st2 st3">“Trees are poems the Earth writes upon the sky.”</text>
<text transform="matrix(1 0 0 1 537.9834 864.6328)"><tspan x="0" y="0" class="st2 st4">       C.Cade</tspan><tspan x="0" y="43.2" class="st2 st4">IOT Spring ‘24</tspan></text>
<ellipse class="st5" cx="600.5" cy="986.5" rx="33.8" ry="22.5"/>
<text transform="matrix(4.489659e-11 -1 1 4.489659e-11 298.3271 492.8906)" class="st2 st4">“Nature does not hurry, yet everything is accomplished.”</text>
<ellipse class="st5" cx="358.5" cy="608.5" rx="27" ry="22.5"/>
</svg>
